<svg width="41" height="41" viewBox="0 0 41 41" fill="none" xmlns="http://www.w3.org/2000/svg">
<path d="M0.882324 20.2852C0.882324 9.5156 9.61277 0.785156 20.3823 0.785156C31.1519 0.785156 39.8823 9.5156 39.8823 20.2852C39.8823 31.0547 31.1519 39.7852 20.3823 39.7852C9.61277 39.7852 0.882324 31.0547 0.882324 20.2852Z" stroke="#969186"/>
<path d="M20.3823 18.0361C19.7856 18.0361 19.2133 18.2732 18.7913 18.6952C18.3694 19.1171 18.1323 19.6894 18.1323 20.2862C18.1323 20.8829 18.3694 21.4552 18.7913 21.8772C19.2133 22.2991 19.7856 22.5362 20.3823 22.5362C20.979 22.5362 21.5513 22.2991 21.9733 21.8772C22.3952 21.4552 22.6323 20.8829 22.6323 20.2862C22.6323 19.6894 22.3952 19.1171 21.9733 18.6952C21.5513 18.2732 20.979 18.0361 20.3823 18.0361ZM20.3823 16.5361C21.3769 16.5361 22.3307 16.9312 23.034 17.6345C23.7372 18.3378 24.1323 19.2916 24.1323 20.2862C24.1323 21.2807 23.7372 22.2346 23.034 22.9378C22.3307 23.6411 21.3769 24.0362 20.3823 24.0362C19.3877 24.0362 18.4339 23.6411 17.7307 22.9378C17.0274 22.2346 16.6323 21.2807 16.6323 20.2862C16.6323 19.2916 17.0274 18.3378 17.7307 17.6345C18.4339 16.9312 19.3877 16.5361 20.3823 16.5361ZM25.2573 16.3486C25.2573 16.5973 25.1585 16.8357 24.9827 17.0115C24.8069 17.1874 24.5684 17.2861 24.3198 17.2861C24.0712 17.2861 23.8327 17.1874 23.6569 17.0115C23.4811 16.8357 23.3823 16.5973 23.3823 16.3486C23.3823 16.1 23.4811 15.8615 23.6569 15.6857C23.8327 15.5099 24.0712 15.4111 24.3198 15.4111C24.5684 15.4111 24.8069 15.5099 24.9827 15.6857C25.1585 15.8615 25.2573 16.1 25.2573 16.3486ZM20.3823 14.2861C18.5268 14.2861 18.2238 14.2914 17.3606 14.3296C16.7726 14.3574 16.3781 14.4361 16.0121 14.5786C15.6866 14.7046 15.4518 14.8554 15.2021 15.1059C14.9673 15.3327 14.7868 15.6096 14.6741 15.9159C14.5316 16.2834 14.4528 16.6771 14.4258 17.2644C14.3868 18.0924 14.3823 18.3819 14.3823 20.2862C14.3823 22.1417 14.3876 22.4447 14.4258 23.3079C14.4536 23.8952 14.5323 24.2904 14.6741 24.6557C14.8016 24.9819 14.9516 25.2167 15.2006 25.4657C15.4533 25.7177 15.6881 25.8684 16.0106 25.9929C16.3811 26.1362 16.7756 26.2157 17.3606 26.2427C18.1886 26.2817 18.478 26.2862 20.3823 26.2862C22.2378 26.2862 22.5408 26.2809 23.404 26.2427C23.9905 26.2149 24.3858 26.1362 24.7518 25.9944C25.0766 25.8677 25.3128 25.7169 25.5618 25.4679C25.8146 25.2152 25.9653 24.9804 26.0898 24.6579C26.2323 24.2882 26.3118 23.8929 26.3388 23.3079C26.3778 22.4799 26.3823 22.1904 26.3823 20.2862C26.3823 18.4307 26.377 18.1276 26.3388 17.2644C26.311 16.6779 26.2323 16.2819 26.0898 15.9159C25.9768 15.6099 25.7966 15.3331 25.5625 15.1059C25.3358 14.871 25.0589 14.6905 24.7525 14.5779C24.385 14.4354 23.9905 14.3566 23.404 14.3296C22.576 14.2906 22.2866 14.2861 20.3823 14.2861ZM20.3823 12.7861C22.4201 12.7861 22.6743 12.7936 23.4738 12.8311C24.2725 12.8686 24.8163 12.9939 25.2948 13.1799C25.7898 13.3704 26.2068 13.6284 26.6238 14.0446C27.0052 14.4196 27.3003 14.8731 27.4886 15.3736C27.6738 15.8514 27.7998 16.3959 27.8373 17.1946C27.8726 17.9941 27.8823 18.2484 27.8823 20.2862C27.8823 22.3239 27.8748 22.5782 27.8373 23.3777C27.7998 24.1764 27.6738 24.7202 27.4886 25.1987C27.3008 25.6995 27.0056 26.1531 26.6238 26.5277C26.2488 26.9089 25.7953 27.204 25.2948 27.3924C24.817 27.5777 24.2725 27.7037 23.4738 27.7412C22.6743 27.7764 22.4201 27.7862 20.3823 27.7862C18.3446 27.7862 18.0903 27.7787 17.2908 27.7412C16.4921 27.7037 15.9483 27.5777 15.4698 27.3924C14.9691 27.2045 14.5155 26.9094 14.1408 26.5277C13.7594 26.1528 13.4643 25.6993 13.2761 25.1987C13.0901 24.7209 12.9648 24.1764 12.9273 23.3777C12.8921 22.5782 12.8823 22.3239 12.8823 20.2862C12.8823 18.2484 12.8898 17.9941 12.9273 17.1946C12.9648 16.3951 13.0901 15.8521 13.2761 15.3736C13.4638 14.8728 13.7589 14.4191 14.1408 14.0446C14.5156 13.6631 14.9691 13.3679 15.4698 13.1799C15.9483 12.9939 16.4913 12.8686 17.2908 12.8311C18.0903 12.7959 18.3446 12.7861 20.3823 12.7861Z" fill="#BDB8AD"/>
</svg>
