<svg width="99" height="17" viewBox="0 0 99 17" fill="none" xmlns="http://www.w3.org/2000/svg">
<g clip-path="url(#clip0_1_406)">
<path fill-rule="evenodd" clip-rule="evenodd" d="M20.3857 0.298016L0.511357 8.21784C0.471466 8.23444 0.438165 8.26377 0.416632 8.30129C0.394066 8.33519 0.382123 8.37508 0.382335 8.41583C0.38192 8.45661 0.393881 8.49656 0.416632 8.53037C0.439501 8.56484 0.472654 8.59118 0.511357 8.60565L6.41209 10.7378C6.44367 10.7505 6.47809 10.7544 6.51172 10.7492C6.54472 10.744 6.57604 10.7311 6.60318 10.7116L17.7971 2.53978C17.7999 2.53857 17.803 2.53794 17.8061 2.53794C17.8092 2.53794 17.8122 2.53857 17.8151 2.53978C17.8213 2.54145 17.827 2.54485 17.8314 2.5496C17.8325 2.55219 17.833 2.55497 17.833 2.55778C17.833 2.56059 17.8325 2.56337 17.8314 2.56596C17.8337 2.57175 17.8337 2.57818 17.8314 2.58396L7.9228 11.2189C7.89995 11.2388 7.88158 11.2633 7.86891 11.2909C7.85704 11.3187 7.85147 11.3489 7.85257 11.3792V15.9773C7.85139 16.0189 7.86402 16.0598 7.8885 16.0935C7.913 16.1277 7.94711 16.1539 7.9865 16.1687C8.02593 16.1828 8.06876 16.184 8.10892 16.1722C8.14908 16.1605 8.18453 16.1364 8.21024 16.1033L11.07 12.5721C11.0966 12.5398 11.1325 12.5164 11.1728 12.505C11.2132 12.4919 11.2566 12.4919 11.297 12.505L14.9423 13.8288C14.9904 13.8484 15.0444 13.8484 15.0925 13.8288C15.1398 13.807 15.1776 13.7686 15.1987 13.7208L20.6503 0.563101C20.6649 0.526754 20.6683 0.486863 20.6601 0.448558C20.6532 0.409424 20.6344 0.373397 20.6062 0.34547C20.5789 0.316641 20.5436 0.296699 20.5049 0.288237C20.4661 0.279774 20.4258 0.283181 20.389 0.298016" fill="#131416"/>
<path d="M26.6671 1.89404H24.8706L24.8967 12.8574H26.6932L26.6671 1.89404Z" fill="#131416"/>
<path d="M32.3227 4.96875C31.4146 4.96875 30.5833 5.29601 30.0624 5.95054V5.13238H28.3687L28.3883 12.8558H30.0819L30.0689 7.74232C30.2269 7.3733 30.491 7.0598 30.8275 6.8418C31.1641 6.6238 31.5578 6.5112 31.9585 6.51835C33.0364 6.51835 33.6537 7.28578 33.657 8.50648L33.6668 12.8558H35.3604L35.349 8.23649C35.349 6.24017 34.1698 4.97529 32.3227 4.9802" fill="#131416"/>
<path d="M42.3567 5.09915L40.0114 10.5122L37.6579 5.11224H35.7798L39.2781 12.8276H40.7725L44.2463 5.09424L42.3567 5.09915Z" fill="#131416"/>
<path d="M48.4508 4.93128C47.4638 4.94765 46.5182 5.3309 45.7974 6.00661C45.0766 6.68233 44.6321 7.60229 44.5503 8.58788C44.4685 9.57347 44.7551 10.5543 45.3546 11.3401C45.954 12.1258 46.8235 12.6604 47.7942 12.8399C48.7649 13.0194 49.7676 12.8311 50.6075 12.3116C51.4474 11.7921 52.0647 10.9784 52.3395 10.0285C52.6143 9.07861 52.5269 8.06029 52.0945 7.17127C51.662 6.28226 50.9152 5.58598 49.9991 5.21763C49.5073 5.01929 48.9808 4.92191 48.4508 4.93128ZM48.4655 11.3882C47.0969 11.3882 46.1382 10.3278 46.1366 8.95337C46.1349 7.57885 47.0806 6.51033 48.4541 6.49888C49.8276 6.48742 50.7667 7.56085 50.77 8.93537C50.7732 10.3098 49.8211 11.3767 48.4704 11.38L48.4655 11.3882Z" fill="#131416"/>
<path d="M55.3915 5.06201H53.6978L53.7191 12.7854H55.4111L55.3915 5.06201Z" fill="#131416"/>
<path d="M55.3915 2.08398H53.6978V3.65158H55.3915V2.08398Z" fill="#131416"/>
<path d="M60.7907 6.47564C61.2356 6.47254 61.6719 6.59871 62.0467 6.83889C62.4214 7.07906 62.7187 7.42294 62.9025 7.82888L64.3723 7.02381C64.0281 6.37124 63.5101 5.827 62.8759 5.45149C62.2416 5.07599 61.5159 4.88392 60.7793 4.89658C58.4765 4.89986 56.729 6.63927 56.729 8.9285C56.729 11.2177 58.501 12.9391 60.812 12.9359C61.5484 12.9461 62.2732 12.7513 62.9056 12.3731C63.5379 11.9949 64.0531 11.4482 64.3936 10.7939L62.9139 9.98884C62.7328 10.3963 62.4374 10.7422 62.0636 10.9845C61.6899 11.2268 61.2539 11.355 60.8087 11.3535C59.4401 11.3535 58.4667 10.2932 58.4634 8.91868C58.4602 7.54416 59.4287 6.47564 60.7989 6.46419" fill="#131416"/>
<path d="M69.2887 4.87695C66.9483 4.87695 65.2677 6.63437 65.2808 8.90559C65.2808 11.2472 66.9695 12.9179 69.305 12.913C70.9137 12.913 72.1223 12.2093 72.8099 11.113L71.5229 10.1901C71.1244 10.8692 70.3976 11.3666 69.3246 11.3699C68.0475 11.3699 67.0283 10.5403 66.9483 9.27376L72.9912 9.25904C73.0059 9.01359 73.0059 8.87286 73.0059 8.70269C73.0059 6.21874 71.3024 4.87859 69.2871 4.88186L69.2887 4.87695ZM67.0185 8.03506C67.2472 6.88964 68.2434 6.31528 69.2315 6.31528C70.2196 6.31528 71.1097 6.91254 71.2975 8.02361L67.0185 8.03506Z" fill="#131416"/>
<path d="M94.3725 4.81604H94.3121C93.7856 4.81191 93.2635 4.91272 92.7761 5.1126C92.2888 5.31248 91.846 5.60745 91.4736 5.98036C91.1011 6.35326 90.8063 6.79664 90.6064 7.28473C90.4065 7.77281 90.3055 8.29584 90.3092 8.82341V8.84468C90.3059 9.3735 90.4078 9.89767 90.609 10.3866C90.8102 10.8755 91.1067 11.3193 91.481 11.6921C91.8554 12.0649 92.3002 12.3592 92.7893 12.5578C93.2785 12.7564 93.8023 12.8553 94.3301 12.8488H94.3595C94.8869 12.8561 95.4104 12.7577 95.8993 12.5593C96.3882 12.3609 96.8325 12.0666 97.2062 11.6936C97.5796 11.321 97.8754 10.8776 98.0761 10.3894C98.2769 9.90106 98.3787 9.37765 98.3755 8.84959V8.82341C98.3786 8.29662 98.2771 7.77448 98.0769 7.28737C97.8767 6.80025 97.5818 6.35789 97.2094 5.98602C96.8374 5.61346 96.3952 5.31874 95.9084 5.119C95.4217 4.91927 94.9002 4.81851 94.3742 4.82259L94.3725 4.81604ZM94.353 11.2796C92.9827 11.2796 92.0273 10.2192 92.024 8.84632C92.0207 7.47344 92.9729 6.40164 94.3399 6.39183C95.7069 6.38201 96.6525 7.4538 96.6558 8.82832C96.659 10.2028 95.7069 11.2698 94.353 11.273V11.2796Z" fill="#131416"/>
<path d="M87.3774 4.98827V5.69843C86.8368 5.14372 86.0349 4.83773 85.1122 4.83936C82.8812 4.83936 81.2676 6.56078 81.2513 8.72727C81.2406 9.23985 81.3335 9.7493 81.5243 10.225C81.715 10.7007 81.9998 11.1329 82.3615 11.4956C82.7232 11.8583 83.1543 12.144 83.6289 12.3355C84.1036 12.5271 84.612 12.6205 85.1236 12.6103C86.0496 12.6103 86.8483 12.283 87.3856 11.7087V12.6234C87.3856 13.8261 86.7323 14.4691 85.8471 14.6655C83.6423 15.0615 82.272 14.3955 82.272 14.3955L81.7314 15.7831C82.5187 16.274 84.9603 16.4147 86.0937 16.1644C87.7269 15.8764 89.0857 14.8062 89.0808 12.6381L89.0661 4.98663L87.3774 4.98827ZM87.3888 9.9627C87.1703 10.3086 86.8648 10.5909 86.5031 10.7813C86.1414 10.9717 85.7361 11.0635 85.3278 11.0476C83.9902 11.0476 83.0168 10.0494 83.0004 8.72236C82.9921 8.41375 83.0477 8.10675 83.1638 7.82075C83.2767 7.53412 83.4467 7.27355 83.6635 7.05495C83.8803 6.83632 84.1392 6.66412 84.4244 6.54879C84.7097 6.43347 85.0153 6.37742 85.3229 6.38405C85.7289 6.3679 86.1323 6.457 86.4939 6.64276C86.8556 6.82851 87.1633 7.10463 87.3872 7.44439L87.3888 9.9627Z" fill="#131416"/>
<path d="M76.1547 11.2799L78.464 8.13813C78.9295 7.52778 79.6726 6.5018 79.8114 6.27762C80.4549 5.21237 80.5333 4.09313 79.9748 2.97552C79.5191 2.06572 78.7139 1.62227 77.7226 1.50282C76.3327 1.3261 74.8873 1.97081 74.2341 3.28969C74.0821 3.57679 73.9826 3.88877 73.9401 4.21094L75.4214 4.53821C75.4443 4.47439 75.4655 4.42203 75.4802 4.37457C75.5506 4.10496 75.6805 3.85461 75.8602 3.64194C76.04 3.42926 76.2651 3.25969 76.5189 3.14569C77.0595 2.89861 77.8353 2.99515 78.2534 3.35678C78.954 3.96713 78.9442 4.99311 78.4363 5.64764C78.3514 5.75891 73.9678 11.3551 73.9678 11.3551C73.9266 11.404 73.9046 11.4663 73.9058 11.5302V12.7689L80.4108 12.7526V11.2799H76.1547Z" fill="#131416"/>
</g>
<defs>
<clipPath id="clip0_1_406">
<rect width="98" height="16" fill="white" transform="translate(0.382324 0.285156)"/>
</clipPath>
</defs>
</svg>
