<svg width="41" height="41" viewBox="0 0 41 41" fill="none" xmlns="http://www.w3.org/2000/svg">
<path d="M0.882324 20.2852C0.882324 9.5156 9.61277 0.785156 20.3823 0.785156C31.1519 0.785156 39.8823 9.5156 39.8823 20.2852C39.8823 31.0547 31.1519 39.7852 20.3823 39.7852C9.61277 39.7852 0.882324 31.0547 0.882324 20.2852Z" stroke="#969186"/>
<path d="M17.0581 15.6201C17.0579 15.9737 16.9168 16.3127 16.6658 16.5626C16.4147 16.8125 16.0744 16.9528 15.7195 16.9527C15.3647 16.9525 15.0245 16.8118 14.7737 16.5617C14.5229 16.3115 14.3821 15.9723 14.3823 15.6187C14.3825 15.2651 14.5236 14.9261 14.7747 14.6762C15.0257 14.4263 15.366 14.286 15.7209 14.2861C16.0757 14.2863 16.4159 14.4269 16.6667 14.6771C16.9175 14.9273 17.0583 15.2665 17.0581 15.6201ZM17.0982 17.9399H14.4225V26.2862H17.0982V17.9399ZM21.3259 17.9399H18.6635V26.2862H21.2991V21.9064C21.2991 19.4666 24.49 19.2399 24.49 21.9064V26.2862H27.1323V20.9998C27.1323 16.8867 22.4096 17.04 21.2991 19.0599L21.3259 17.9399Z" fill="#BDB8AD"/>
</svg>
