<svg width="132" height="32" viewBox="0 0 132 32" fill="none" xmlns="http://www.w3.org/2000/svg">
<g clip-path="url(#clip0_1_17)">
<path d="M63.9507 7.39453C65.6102 7.39453 66.9421 7.9404 67.9465 9.03214C68.9509 10.1021 69.4531 11.5104 69.4531 13.2572V23.9999H64.9988V13.2572C64.9988 12.6458 64.8569 12.1654 64.573 11.8161C64.2892 11.4449 63.918 11.2593 63.4594 11.2593H62.0511C61.4397 11.2593 60.9048 11.4886 60.4462 11.9471C59.9877 12.3838 59.7038 12.9733 59.5947 13.7157V23.9999H55.1404V13.2899C55.1404 12.6786 54.9984 12.1873 54.7146 11.8161C54.4307 11.4449 54.0596 11.2593 53.601 11.2593H52.3237C51.6905 11.2593 51.1337 11.5432 50.6533 12.1109C50.173 12.6786 49.8673 13.421 49.7363 14.338V23.9999H45.282V7.65655H49.4087V9.55618C49.8018 8.90113 50.304 8.3771 50.9153 7.98407C51.5486 7.59105 52.1818 7.39453 52.815 7.39453H54.6491C55.4351 7.39453 56.1448 7.60196 56.778 8.01682C57.433 8.43169 57.9461 9.01031 58.3173 9.75269C58.7977 9.01031 59.3654 8.43169 60.0205 8.01682C60.6973 7.60196 61.407 7.39453 62.1493 7.39453H63.9507ZM79.0383 24.2619C77.6627 24.2619 76.4399 23.9999 75.37 23.4759C74.3219 22.93 73.5031 22.1658 72.9136 21.1832C72.3459 20.2006 72.062 19.0652 72.062 17.777V13.945C72.062 12.6567 72.3568 11.5213 72.9463 10.5388C73.5359 9.53435 74.3547 8.75921 75.4028 8.21334C76.4727 7.66747 77.6954 7.39453 79.071 7.39453H82.0187C83.3943 7.39453 84.6061 7.66747 85.6542 8.21334C86.7241 8.75921 87.5538 9.53435 88.1434 10.5388C88.7329 11.5213 89.0277 12.6567 89.0277 13.945V17.777C89.0277 19.0652 88.7329 20.2006 88.1434 21.1832C87.5538 22.1658 86.7241 22.93 85.6542 23.4759C84.6061 23.9999 83.3834 24.2619 81.986 24.2619H79.0383ZM81.9205 20.4299C82.7283 20.4299 83.3725 20.157 83.8528 19.6111C84.3332 19.0434 84.5734 18.3119 84.5734 17.4167V14.2398C84.5734 13.3445 84.3332 12.624 83.8528 12.0781C83.3725 11.5104 82.7393 11.2266 81.9532 11.2266H79.1365C78.3505 11.2266 77.7173 11.5104 77.2369 12.0781C76.7565 12.624 76.5163 13.3445 76.5163 14.2398V17.4167C76.5163 18.3119 76.7565 19.0434 77.2369 19.6111C77.7173 20.157 78.3395 20.4299 79.1038 20.4299H81.9205ZM95.2616 15.7136L89.268 7.65655H94.2463L97.8491 12.5039L101.452 7.65655H106.43L100.436 15.7136L106.626 23.9999H101.648L97.8491 18.8905L94.0498 23.9999H89.0715L95.2616 15.7136ZM112.804 24.2619C111.1 24.2619 109.725 23.8361 108.677 22.9846C107.629 22.133 107.105 21.0085 107.105 19.6111V18.3993C107.105 17.0237 107.651 15.921 108.742 15.0913C109.834 14.2398 111.275 13.814 113.066 13.814H115.063C115.631 13.814 116.243 13.8904 116.898 14.0432C117.553 14.1961 118.153 14.4035 118.699 14.6655V12.9624C118.699 12.4165 118.513 11.9799 118.142 11.6523C117.793 11.303 117.323 11.1283 116.734 11.1283H113.917C113.306 11.1283 112.814 11.2702 112.443 11.5541C112.072 11.8379 111.886 12.22 111.886 12.7004H107.563C107.563 11.1065 108.142 9.82912 109.299 8.86838C110.478 7.88582 112.017 7.39453 113.917 7.39453H116.734C118.655 7.39453 120.206 7.90765 121.385 8.93389C122.564 9.93829 123.153 11.2811 123.153 12.9624V23.9999H119.026V22.0348C118.502 22.7116 117.858 23.2575 117.094 23.6724C116.33 24.0654 115.577 24.2619 114.834 24.2619H112.804ZM115.162 20.8557C115.97 20.8557 116.69 20.6483 117.323 20.2334C117.957 19.8185 118.415 19.2617 118.699 18.563V18.0062C118.35 17.7442 117.858 17.5368 117.225 17.3839C116.614 17.2311 115.959 17.1547 115.26 17.1547H113.197C112.673 17.1547 112.247 17.2857 111.919 17.5477C111.592 17.8097 111.428 18.1591 111.428 18.5958V19.4473C111.428 19.8622 111.603 20.2006 111.952 20.4627C112.323 20.7247 112.804 20.8557 113.393 20.8557H115.162ZM128.459 24.3274C127.651 24.3274 126.996 24.0872 126.493 23.6069C126.013 23.1047 125.773 22.4496 125.773 21.6417C125.773 20.8338 126.013 20.1897 126.493 19.7094C126.996 19.2072 127.651 18.9561 128.459 18.9561C129.267 18.9561 129.911 19.2072 130.391 19.7094C130.893 20.1897 131.144 20.8338 131.144 21.6417C131.144 22.4496 130.893 23.1047 130.391 23.6069C129.911 24.0872 129.267 24.3274 128.459 24.3274Z" fill="#161513"/>
<path fill-rule="evenodd" clip-rule="evenodd" d="M17.5252 0H15.2394V10.1205L11.4482 0.736931L9.32892 1.59318L13.2184 11.2198L5.87668 3.87816L4.26044 5.49442L11.2971 12.5311L2.17812 8.5469L1.263 10.6414L10.912 14.8571H0.382263V17.1429H10.912L1.263 21.3586L2.17812 23.4531L11.2971 19.469L4.26044 26.5056L5.87668 28.1218L13.2184 20.7802L9.32892 30.4069L11.4482 31.263L15.2394 21.8795V32H17.5252V21.8795L21.3164 31.263L23.4356 30.4069L19.5463 20.7802L26.8879 28.1218L28.5041 26.5056L21.4674 19.469L30.5865 23.4531L31.5015 21.3586L21.8527 17.1429H32.3823V14.8571H21.8525L31.5015 10.6414L30.5865 8.5469L21.4674 12.5311L28.5041 5.4944L26.8879 3.87816L19.5463 11.2198L23.4356 1.59318L21.3164 0.736931L17.5252 10.1205V0Z" fill="#E94D35"/>
</g>
<defs>
<clipPath id="clip0_1_17">
<rect width="131" height="32" fill="white" transform="translate(0.382263)"/>
</clipPath>
</defs>
</svg>
