<svg width="123" height="13" viewBox="0 0 123 13" fill="none" xmlns="http://www.w3.org/2000/svg">
<g clip-path="url(#clip0_1_382)">
<path d="M12.7196 4.36519C12.7196 2.37492 11.3893 0.567103 8.86722 0.552423C7.17022 0.552423 2.07925 0.535645 0.382263 0.535645V12.0558H2.4011V8.21151H7.74174L10.8627 12.0558H13.2619V11.909L10.02 7.98082C12.0545 7.5362 12.7274 5.94231 12.7274 4.36519H12.7196ZM2.4089 6.2527V2.57206H8.87502C10.1429 2.57206 10.7086 3.49274 10.7086 4.41343C10.7086 5.33411 10.1585 6.25479 8.87502 6.25479L2.4089 6.2527Z" fill="#131416"/>
<path d="M26.7052 0.53984C25.0238 0.53984 19.9484 0.556618 18.267 0.556618V12.06H20.2839V8.6708H26.7052C31.9483 8.6708 31.9327 0.535645 26.7052 0.535645V0.53984ZM26.7052 6.68263H20.2839V2.60561H26.7052C29.2721 2.60561 29.2877 6.68263 26.7052 6.68263Z" fill="#131416"/>
<path d="M63.5805 6.1083C64.5734 5.63013 64.9713 4.77656 64.9713 3.88734C64.9713 1.58038 63.3972 0.552734 61.2867 0.552734H52.8173V12.056H61.2867C63.5025 12.056 65.2912 11.236 65.2912 8.67112C65.2912 7.94757 64.8328 6.51726 63.5805 6.1083ZM54.803 2.52414H61.2847C62.5701 2.52414 62.9661 3.41126 62.9661 3.93767C62.9661 4.5941 62.5545 5.17084 61.2847 5.17084H54.805L54.803 2.52414ZM61.2847 10.0364H54.805V7.07722H61.2867C62.1118 7.07722 63.2899 7.61831 63.2899 8.65434C63.2899 9.73861 62.1196 10.0364 61.2867 10.0364" fill="#131416"/>
<path d="M72.1377 0.552734H70.1189V12.0581H81.0343V10.0511H72.1377V0.552734Z" fill="#131416"/>
<path d="M87.8808 0.552734H85.8776V12.0581H87.8808V0.552734Z" fill="#131416"/>
<path d="M103.007 8.8786C102.718 9.18733 102.39 9.45005 102.032 9.65877C101.629 9.88862 101.201 10.0633 100.758 10.1789C100.255 10.3086 99.7389 10.372 99.2214 10.3677C98.5426 10.3797 97.8668 10.269 97.222 10.0405C96.689 9.84754 96.1961 9.54479 95.7708 9.14913C95.3895 8.78676 95.0872 8.33852 94.8853 7.83627C94.6883 7.34629 94.5867 6.81811 94.5868 6.28431C94.5857 5.74499 94.6873 5.21113 94.8853 4.71558C95.0872 4.21334 95.3895 3.76509 95.7708 3.40271C96.1963 3.00705 96.691 2.70685 97.2259 2.51978C97.8709 2.296 98.5457 2.18829 99.2233 2.201C99.7167 2.19852 100.209 2.25622 100.69 2.37297C101.117 2.47604 101.532 2.63083 101.927 2.83436C102.282 3.01851 102.611 3.25807 102.902 3.54533C103.077 3.72192 103.236 3.91649 103.376 4.12626L105.077 3.11539C104.861 2.78001 104.613 2.47063 104.335 2.19261C103.942 1.79768 103.502 1.46058 103.027 1.19013C102.498 0.891937 101.935 0.667807 101.353 0.523208C100.689 0.360346 100.01 0.280818 99.3286 0.28622C98.3511 0.270156 97.3784 0.436194 96.4535 0.776975C95.6767 1.06468 94.9583 1.50961 94.3371 2.08775C93.7826 2.61189 93.3384 3.25711 93.0341 3.98039C92.7298 4.70366 92.5724 5.48838 92.5724 6.28222C92.5724 7.07605 92.7298 7.86077 93.0341 8.58405C93.3384 9.30733 93.7826 9.95254 94.3371 10.4767C94.9577 11.0558 95.6763 11.5008 96.4535 11.7875C97.3743 12.129 98.343 12.2971 99.3169 12.2845C100.02 12.2907 100.72 12.2055 101.404 12.0308C101.999 11.8762 102.573 11.6386 103.11 11.324C103.595 11.0426 104.04 10.6896 104.433 10.2753C104.718 9.97151 104.97 9.63296 105.182 9.26658L103.473 8.25991C103.34 8.48748 103.184 8.69849 103.007 8.88908" fill="#131416"/>
<path d="M44.2856 0.54004C44.0587 0.539764 43.834 0.587568 43.6244 0.68072C43.4147 0.773872 43.2242 0.910543 43.0637 1.08292C42.9031 1.2553 42.7758 1.46 42.6889 1.68533C42.6021 1.91065 42.5574 2.15218 42.5574 2.39609H45.7777V6.36615C45.7179 6.89371 45.6094 7.41358 45.4539 7.9181C45.252 8.42034 44.9497 8.86859 44.5684 9.23096C44.1427 9.62707 43.649 9.92986 43.1152 10.1223C42.0502 10.5759 40.8643 10.5759 39.7993 10.1223C39.2655 9.92986 38.7718 9.62707 38.3461 9.23096C37.9648 8.86859 37.6624 8.42034 37.4605 7.9181C37.3051 7.41358 37.1966 6.89371 37.1367 6.36615V0.54004H35.1433V6.36615C35.1386 7.15983 35.2929 7.94529 35.5959 8.66909C35.8988 9.39288 36.3432 10.038 36.8988 10.5606C37.5204 11.1376 38.2396 11.5805 39.0171 11.8651C40.6018 12.4183 42.3087 12.4183 43.8935 11.8651C44.6707 11.5784 45.3893 11.1334 46.0099 10.5543C46.5655 10.0317 47.0098 9.38658 47.3128 8.66279C47.6157 7.939 47.7701 7.15354 47.7654 6.35986V0.54004H44.2856Z" fill="#131416"/>
<path d="M114.884 2.44654L110.171 12.056H108.164L113.766 0.624039V0.552734H116.743L122.382 12.056H120.375L119.177 9.62326H115.586C115.353 9.62326 115.122 9.57384 114.906 9.47783C114.691 9.38181 114.495 9.24108 114.33 9.06367C114.165 8.88626 114.034 8.67563 113.945 8.44383C113.855 8.21203 113.809 7.96359 113.809 7.71269H118.237L115.649 2.44654H114.884Z" fill="#131416"/>
</g>
<defs>
<clipPath id="clip0_1_382">
<rect width="122" height="12" fill="white" transform="translate(0.382263 0.285156)"/>
</clipPath>
</defs>
</svg>
