<svg width="41" height="40" viewBox="0 0 41 40" fill="none" xmlns="http://www.w3.org/2000/svg">
<g clip-path="url(#clip0_1_27)">
<path fill-rule="evenodd" clip-rule="evenodd" d="M21.8109 0H18.9537V12.6506L14.2147 0.921164L11.5656 1.99147L16.4274 14.0248L7.25028 4.8477L5.22998 6.86802L14.0258 15.6638L2.62708 10.6836L1.48318 13.3018L13.5444 18.5714H0.382263V21.4286H13.5444L1.48318 26.6982L2.62708 29.3164L14.0258 24.3362L5.22998 33.132L7.25028 35.1522L16.4274 25.9752L11.5656 38.0086L14.2147 39.0788L18.9537 27.3494V40H21.8109V27.3494L26.5499 39.0788L29.1989 38.0086L24.3373 25.9752L33.5143 35.1522L35.5345 33.132L26.7387 24.3362L38.1375 29.3164L39.2813 26.6982L27.2203 21.4286H40.3823V18.5714H27.2201L39.2813 13.3018L38.1375 10.6836L26.7387 15.6638L35.5345 6.868L33.5143 4.8477L24.3373 14.0248L29.1989 1.99147L26.5499 0.921164L21.8109 12.6506V0Z" fill="#E94D35"/>
</g>
<defs>
<clipPath id="clip0_1_27">
<rect width="40" height="40" fill="white" transform="translate(0.382263)"/>
</clipPath>
</defs>
</svg>
