<svg width="73" height="17" viewBox="0 0 73 17" fill="none" xmlns="http://www.w3.org/2000/svg">
<g clip-path="url(#clip0_1_323)">
<path d="M18.0521 3.61875L13.7492 0.676773C13.3825 0.426478 12.9437 0.291992 12.4937 0.291992C12.0437 0.291992 11.6049 0.426478 11.2382 0.676773L9.83735 1.63356L8.3143 2.67184L6.93533 3.61875C6.65451 3.81122 6.42553 4.06516 6.26737 4.35951C6.10921 4.65386 6.02642 4.98016 6.02587 5.31134V11.2731C6.02607 11.3499 6.00757 11.4258 5.97184 11.4946C5.93611 11.5634 5.88414 11.6232 5.82006 11.6694L4.3266 12.657L5.75703 13.6323L6.76553 12.9644C7.04641 12.7723 7.27545 12.5186 7.43363 12.2244C7.5918 11.9303 7.67455 11.6041 7.67498 11.2731V5.31134C7.67517 5.23227 7.69485 5.15436 7.73241 5.08398C7.76997 5.01361 7.82435 4.95275 7.89109 4.9064L12.194 1.96566C12.2814 1.90556 12.3862 1.87323 12.4937 1.87323C12.6012 1.87323 12.7061 1.90556 12.7934 1.96566L13.9164 2.73233L15.3456 3.70764L17.0976 4.90517C17.165 4.95096 17.22 5.01166 17.2578 5.08214C17.2957 5.15263 17.3153 5.23082 17.315 5.31011V11.2731C17.3151 11.3521 17.2954 11.4301 17.2576 11.5003C17.2197 11.5706 17.1649 11.6311 17.0976 11.6768L12.7934 14.6064C12.6989 14.6689 12.5858 14.7004 12.471 14.6962C12.3563 14.6919 12.246 14.6522 12.1567 14.5829L11.3373 14.0891L9.89524 15.0879L11.2382 15.9002C11.6049 16.1507 12.0437 16.2853 12.4937 16.2853C12.9437 16.2853 13.3826 16.1507 13.7492 15.9002L18.0521 12.9595C18.3322 12.7678 18.5609 12.5149 18.719 12.2217C18.8771 11.9284 18.9603 11.6033 18.9615 11.2731V5.31134C18.9614 4.98008 18.8788 4.65365 18.7206 4.35923C18.5624 4.06481 18.3332 3.81093 18.0521 3.61875Z" fill="#131416"/>
<path d="M11.0269 13.9028L12.4085 12.9584C12.6885 12.7666 12.917 12.5136 13.0751 12.2204C13.2332 11.9272 13.3164 11.6021 13.3179 11.272V5.31019C13.3177 5.233 13.3363 5.15684 13.3722 5.0878C13.4082 5.01876 13.4605 4.95878 13.525 4.91266L15.0146 3.925L13.5855 2.9497L12.5783 3.61636C12.2975 3.80883 12.0687 4.06279 11.9107 4.35717C11.7528 4.65154 11.6703 4.97784 11.6701 5.30895V11.272C11.6702 11.351 11.6505 11.429 11.6126 11.4992C11.5748 11.5695 11.52 11.63 11.4527 11.6757L7.14979 14.6053C7.06239 14.6654 6.95758 14.6977 6.85007 14.6977C6.74255 14.6977 6.63774 14.6654 6.55035 14.6053L5.42735 13.8386L4.00078 12.867L2.24876 11.6695C2.18238 11.6244 2.12806 11.5649 2.09027 11.4958C2.05249 11.4267 2.0323 11.35 2.03137 11.272V5.31019C2.03093 5.23101 2.05033 5.15289 2.08794 5.08241C2.12555 5.01194 2.18027 4.95117 2.24748 4.90525L6.55035 1.96451C6.64577 1.90112 6.76004 1.86914 6.87601 1.87337C6.99198 1.8776 7.10339 1.91781 7.19352 1.98797L7.98849 2.47068L9.44851 1.48303L8.1107 0.673148C7.74407 0.422679 7.30524 0.288086 6.85521 0.288086C6.40519 0.288086 5.96635 0.422679 5.59973 0.673148L1.29172 3.6176C1.01059 3.80978 0.78138 4.06366 0.623185 4.35808C0.46499 4.65249 0.382389 4.97893 0.382263 5.31019V11.272C0.382495 11.6032 0.465141 11.9296 0.623327 12.224C0.781514 12.5184 1.01067 12.7723 1.29172 12.9645L5.59458 15.9053C5.9612 16.1558 6.40004 16.2904 6.85007 16.2904C7.30009 16.2904 7.73893 16.1558 8.10555 15.9053L9.57586 14.9004L11.0256 13.9127L11.0269 13.9028Z" fill="#131416"/>
<path d="M28.8932 2.16553H25.685V3.98899C25.6851 4.19475 25.6015 4.39242 25.4521 4.53998C25.3027 4.68753 25.0992 4.77332 24.8849 4.77911L24.0307 4.8001V7.23343H25.685V11.6014C25.685 14.3619 26.8234 15.2557 31.583 14.9582V12.452C29.162 12.6903 28.9755 12.0545 28.9755 11.2804V7.22973H31.583V4.74701H28.8932V2.16553Z" fill="#131416"/>
<path d="M41.8015 0.505859C40.6437 0.505859 40.0083 0.752773 40.0083 2.06512C40.0083 3.37746 40.6412 3.62438 41.8015 3.62438C42.9425 3.62438 43.538 3.34536 43.538 2.06512C43.538 0.747835 42.9425 0.505859 41.8015 0.505859Z" fill="#131416"/>
<path d="M43.4187 4.74707H40.1694V14.8755H43.4187V4.74707Z" fill="#131416"/>
<path d="M51.7774 4.56781C50.1424 4.56781 49.1082 5.10361 48.6117 5.71966V0.834473H45.4048V14.8753C45.4408 14.8753 45.4755 14.8753 45.5115 14.8678H45.6556C46.0147 14.8676 46.3662 14.7688 46.6686 14.5831C46.9711 14.3974 47.2119 14.1325 47.3626 13.8197V13.8123C47.3887 13.7592 47.4285 13.7134 47.4782 13.6792C47.5279 13.645 47.5858 13.6235 47.6465 13.6167C47.7073 13.6099 47.7688 13.618 47.8254 13.6404C47.8819 13.6627 47.9316 13.6985 47.9698 13.7444C48.5846 14.4592 49.4414 14.8864 50.6582 15.0024C50.911 15.036 51.1659 15.0533 51.4211 15.0543C53.2618 15.0543 54.4324 14.3074 55.1335 13.2271C55.1721 13.1691 55.2107 13.1037 55.2467 13.0493L55.3187 12.9185C55.3715 12.8222 55.4203 12.7246 55.4667 12.6234L55.4988 12.5493C55.5528 12.4259 55.6004 12.3024 55.6455 12.179C55.6455 12.1654 55.6545 12.1518 55.6583 12.1382C55.7033 12.0061 55.7445 11.8716 55.7792 11.7345C55.7792 11.7172 55.7882 11.7024 55.7921 11.6864C55.8204 11.5716 55.8461 11.4555 55.868 11.337C55.877 11.2901 55.8873 11.2432 55.8963 11.1962C55.9053 11.1493 55.9066 11.1222 55.913 11.0851C55.9821 10.657 56.0178 10.2245 56.0198 9.79127C56.0198 7.1888 55.0473 4.56781 51.7774 4.56781ZM50.6814 12.4913C48.8805 12.4913 48.5911 11.3999 48.5911 9.79127C48.5911 8.24188 48.8188 7.10979 50.6608 7.10979C52.4193 7.10979 52.7087 8.2209 52.7087 9.79127C52.7087 11.379 52.4193 12.4913 50.6814 12.4913Z" fill="#131416"/>
<path d="M62.1439 4.56787C58.2951 4.56787 57.3844 6.05676 57.3844 8.2222H60.5295C60.5295 7.40738 60.9013 6.81232 62.2263 6.81232C63.6335 6.81232 64.0889 7.4296 64.0889 8.59874L61.3155 8.87652C58.3569 9.17528 56.9702 9.98763 56.9702 11.9358C56.9702 14.0605 58.874 15.0543 61.3567 15.0543C62.9633 15.0543 64.0272 14.6062 64.7552 13.7593C64.7933 13.7131 64.8431 13.6771 64.8998 13.6545C64.9565 13.632 65.0182 13.6237 65.0792 13.6306C65.1401 13.6374 65.1982 13.659 65.248 13.6934C65.2978 13.7278 65.3376 13.7739 65.3637 13.8272C65.5144 14.14 65.7552 14.4049 66.0576 14.5906C66.3601 14.7763 66.7116 14.8751 67.0707 14.8753H67.3164V9.13578C67.3138 6.51355 66.6462 4.56787 62.1439 4.56787ZM62.0153 12.8691C60.8357 12.8691 60.343 12.4321 60.343 11.8161C60.343 11.3395 60.7366 10.9827 62.0153 10.863L64.085 10.6247C64.0657 11.8766 63.465 12.8691 62.0153 12.8691Z" fill="#131416"/>
<path d="M72.3822 0.834473H69.1548V14.8753H72.3822V0.834473Z" fill="#131416"/>
<path d="M39.0658 4.55176C38.9616 4.55176 38.8651 4.55917 38.7648 4.56287C37.9429 4.51552 37.1281 4.73276 36.4494 5.18016C36.1561 5.36154 35.8936 5.58514 35.6711 5.84312C35.6327 5.88893 35.5828 5.92462 35.5261 5.94685C35.4694 5.96908 35.4078 5.97712 35.3469 5.9702C35.2861 5.96329 35.2281 5.94166 35.1784 5.90734C35.1287 5.87302 35.0888 5.82713 35.0627 5.77398C34.9108 5.46074 34.6686 5.19584 34.3647 5.01072C34.0608 4.8256 33.7079 4.72801 33.3479 4.72954H33.1022V4.753H33.0932V14.8765H36.3207V9.69127C36.3207 8.34065 36.6938 7.05053 39.1147 7.2888V4.58757H39.071C39.0697 4.56534 39.0684 4.55176 39.0658 4.55176Z" fill="#131416"/>
</g>
<defs>
<clipPath id="clip0_1_323">
<rect width="72" height="16" fill="white" transform="translate(0.382263 0.285156)"/>
</clipPath>
</defs>
</svg>
