<svg width="41" height="41" viewBox="0 0 41 41" fill="none" xmlns="http://www.w3.org/2000/svg">
<path d="M0.882324 20.2852C0.882324 9.5156 9.61277 0.785156 20.3823 0.785156C31.1519 0.785156 39.8823 9.5156 39.8823 20.2852C39.8823 31.0547 31.1519 39.7852 20.3823 39.7852C9.61277 39.7852 0.882324 31.0547 0.882324 20.2852Z" stroke="#969186"/>
<path d="M28.0038 15.5283C27.4312 15.7816 26.824 15.9479 26.2023 16.0218C26.8576 15.6299 27.3481 15.0131 27.5823 14.2863C26.9673 14.6523 26.2931 14.9088 25.5903 15.0476C25.1183 14.5425 24.4926 14.2075 23.8105 14.0948C23.1285 13.982 22.4283 14.0977 21.8188 14.4239C21.2093 14.7501 20.7246 15.2686 20.4401 15.8987C20.1557 16.5287 20.0874 17.2352 20.2458 17.9081C18.9986 17.8456 17.7786 17.5215 16.6648 16.9568C15.551 16.3922 14.5684 15.5996 13.7808 14.6306C13.502 15.1094 13.3555 15.6537 13.3563 16.2078C13.3563 17.2953 13.9098 18.2561 14.7513 18.8186C14.2533 18.8029 13.7663 18.6684 13.3308 18.4263V18.4653C13.331 19.1896 13.5816 19.8915 14.0402 20.4521C14.4988 21.0127 15.1372 21.3974 15.8471 21.5411C15.3848 21.6663 14.9 21.6848 14.4296 21.5951C14.6297 22.2185 15.0198 22.7637 15.5452 23.1544C16.0707 23.5451 16.7052 23.7617 17.3598 23.7738C16.7092 24.2848 15.9642 24.6626 15.1675 24.8855C14.3707 25.1083 13.5379 25.172 12.7166 25.0728C14.1503 25.9949 15.8194 26.4844 17.5241 26.4828C23.2938 26.4828 26.4491 21.7031 26.4491 17.5578C26.4491 17.4228 26.4453 17.2863 26.4393 17.1528C27.0535 16.7089 27.5835 16.1591 28.0046 15.5291L28.0038 15.5283Z" fill="#BDB8AD"/>
</svg>
