<svg width="105" height="13" viewBox="0 0 105 13" fill="none" xmlns="http://www.w3.org/2000/svg">
<g clip-path="url(#clip0_1_336)">
<path d="M5.144 12.1002L0.382263 0.470703H2.82145L6.30698 9.14654L9.8131 0.470703H12.2523L7.46654 12.1002H5.144Z" fill="#131416"/>
<path d="M14.3523 5.26309H21.5052C21.298 4.47758 20.837 3.77918 20.1913 3.27264C19.5608 2.76294 18.7677 2.4875 17.951 2.49464C17.1131 2.47393 16.2948 2.74607 15.6422 3.26253C15.0028 3.77457 14.5501 4.47665 14.3523 5.26309ZM13.6353 10.5441C13.0635 9.9931 12.6119 9.33361 12.3081 8.60577C12.0044 7.87793 11.8548 7.09697 11.8685 6.31052C11.8553 5.52272 12.0027 4.74028 12.302 4.0092C12.6013 3.27812 13.0464 2.61318 13.6113 2.05344C14.1587 1.48135 14.8223 1.02837 15.5592 0.723802C16.2961 0.41923 17.0899 0.269835 17.8893 0.285264C19.4505 0.267607 20.9593 0.837664 22.1056 1.8783C22.7005 2.40945 23.1756 3.05687 23.5006 3.77899C23.8255 4.50111 23.9931 5.28196 23.9924 6.0714C23.9944 6.42057 23.9714 6.76944 23.9238 7.11547H14.3523C14.3879 7.52552 14.5056 7.92463 14.6987 8.2899C14.8918 8.65517 15.1565 8.97942 15.4775 9.24401C16.1471 9.80028 17.0023 10.0941 17.879 10.0691C18.4098 10.0879 18.9385 9.99381 19.4288 9.79326C19.9191 9.5927 20.3594 9.29045 20.7196 8.90722L23.4915 8.93079C22.9762 9.93169 22.189 10.7733 21.217 11.3625C20.2398 11.9709 19.1048 12.2901 17.9476 12.2819C17.146 12.2971 16.3497 12.1508 15.608 11.8518C14.8662 11.5529 14.1948 11.1078 13.6353 10.5441Z" fill="#131416"/>
<path d="M25.5669 12.1V6.03764C25.5669 4.17629 26.0243 2.77634 26.9391 1.83781C27.4066 1.36694 27.9699 0.998179 28.5924 0.755595C29.2149 0.513011 29.8825 0.402065 30.5516 0.430004H30.7883V2.64275H30.5516C28.7814 2.64275 27.8974 3.77438 27.8997 6.03764V12.1H25.5669Z" fill="#131416"/>
<path d="M37.7245 2.49441C37.2145 2.47862 36.7068 2.56786 36.2341 2.75638C35.7614 2.94491 35.3342 3.22853 34.98 3.589C34.2752 4.31544 33.8821 5.28018 33.8821 6.28336C33.8821 7.28654 34.2752 8.25127 34.98 8.97771C35.3293 9.33684 35.751 9.62055 36.2182 9.81075C36.6854 10.0009 37.1879 10.0935 37.6936 10.0824C38.1941 10.0947 38.6918 10.004 39.1544 9.81608C39.6171 9.62814 40.0345 9.34715 40.3798 8.99119C41.0723 8.25867 41.4571 7.29622 41.4571 6.29683C41.4571 5.29744 41.0723 4.33499 40.3798 3.60247C40.0352 3.2454 39.618 2.96343 39.1552 2.77486C38.6924 2.58629 38.1945 2.49534 37.6936 2.50789L37.7245 2.49441ZM33.3744 2.02963C34.375 1.04453 35.6925 0.430585 37.1026 0.292426C38.5126 0.154267 39.9278 0.500451 41.1069 1.27198C42.2861 2.0435 43.1562 3.19261 43.5689 4.52343C43.9817 5.85425 43.9115 7.2844 43.3704 8.57012C42.8293 9.85584 41.8508 10.9176 40.6015 11.5743C39.3523 12.231 37.9098 12.4421 36.5198 12.1715C35.1298 11.901 33.8785 11.1656 32.979 10.0906C32.0795 9.01567 31.5875 7.66775 31.587 6.27661C31.5743 5.48648 31.7263 4.70215 32.0337 3.97181C32.3411 3.24146 32.7973 2.58054 33.3744 2.02963Z" fill="#131416"/>
<path d="M55.8352 12.1002H53.1833L50.1266 7.93744L47.0699 12.1002H44.394L48.799 6.05476L44.7474 0.470703H47.3787L50.1026 4.19229L52.8746 0.470703H55.5059L51.4543 6.05476L55.8352 12.1002Z" fill="#131416"/>
<path d="M58.5283 12.0632V8.17318H56.4048V6.826H58.5283V6.41175L58.5764 4.99383C58.7044 3.58154 59.155 2.47237 59.928 1.66631C60.7458 0.842124 61.846 0.345254 63.0156 0.271973V1.69325C62.2405 1.81011 61.5278 2.17894 60.9915 2.74067C60.4336 3.36833 60.1115 4.16474 60.079 4.9972L60.031 6.41511V6.82937H63.7669V8.17655H60.0447V12.0665L58.5283 12.0632Z" fill="#131416"/>
<path d="M67.6877 0.474121H66.1714V12.1036H67.6877V0.474121Z" fill="#131416"/>
<path d="M79.6023 3.04002C79.1827 2.60878 78.6762 2.26808 78.1151 2.03961C77.554 1.81115 76.9505 1.69993 76.3432 1.71305C75.7331 1.70222 75.1273 1.8144 74.5632 2.04265C73.9991 2.27089 73.4886 2.61035 73.0635 3.04002C72.2022 3.91058 71.7203 5.07644 71.7203 6.29009C71.7203 7.50373 72.2022 8.66959 73.0635 9.54016C73.4849 9.9732 73.9927 10.3164 74.5553 10.5482C75.1178 10.7799 75.7229 10.8954 76.3329 10.8874C76.9381 10.8987 77.5392 10.787 78.0983 10.5592C78.6574 10.3314 79.1625 9.99243 79.5817 9.56373C80.429 8.68338 80.9011 7.51811 80.9011 6.30693C80.9011 5.09575 80.429 3.93048 79.5817 3.05012L79.6023 3.04002ZM71.9966 2.02963C72.9971 1.04453 74.3147 0.430585 75.7247 0.292426C77.1348 0.154267 78.55 0.500451 79.7291 1.27198C80.9082 2.0435 81.7783 3.19261 82.1911 4.52343C82.6038 5.85425 82.5337 7.2844 81.9926 8.57012C81.4515 9.85584 80.4729 10.9176 79.2237 11.5743C77.9745 12.231 76.532 12.4421 75.142 12.1715C73.752 11.901 72.5006 11.1656 71.6011 10.0906C70.7016 9.01567 70.2097 7.66775 70.2092 6.27661C70.1965 5.48648 70.3485 4.70215 70.6559 3.97181C70.9632 3.24146 71.4195 2.58054 71.9966 2.02963Z" fill="#131416"/>
<path d="M94.3098 3.04002C93.8902 2.60878 93.3838 2.26808 92.8226 2.03961C92.2615 1.81115 91.6581 1.69993 91.0507 1.71305C90.4407 1.70222 89.8349 1.8144 89.2707 2.04265C88.7066 2.27089 88.1962 2.61035 87.771 3.04002C86.9097 3.91058 86.4279 5.07644 86.4279 6.29009C86.4279 7.50373 86.9097 8.66959 87.771 9.54016C88.1922 9.97352 88.7 10.3169 89.2625 10.5487C89.8251 10.7805 90.4304 10.8958 91.0405 10.8874C91.6452 10.899 92.2459 10.7874 92.8045 10.5596C93.3631 10.3318 93.8675 9.99267 94.2859 9.56373C95.1339 8.68377 95.6065 7.51835 95.6065 6.30693C95.6065 5.09551 95.1339 3.93009 94.2859 3.05012L94.3098 3.04002ZM86.7075 2.02963C87.7081 1.04453 89.0257 0.430585 90.4357 0.292426C91.8457 0.154267 93.2609 0.500451 94.4401 1.27198C95.6192 2.0435 96.4893 3.19261 96.9021 4.52343C97.3148 5.85425 97.2447 7.2844 96.7036 8.57012C96.1625 9.85584 95.1839 10.9176 93.9347 11.5743C92.6855 12.231 91.2429 12.4421 89.853 12.1715C88.463 11.901 87.2116 11.1656 86.3121 10.0906C85.4126 9.01567 84.9207 7.66775 84.9202 6.27661C84.9073 5.48646 85.0592 4.70207 85.3666 3.97169C85.6739 3.24132 86.1303 2.58042 86.7075 2.02963Z" fill="#131416"/>
<path d="M98.931 12.0999V6.07127C98.931 4.19644 99.369 2.78527 100.245 1.83776C100.695 1.36332 101.244 0.990736 101.856 0.745882C102.467 0.501027 103.126 0.389774 103.785 0.419848C103.9 0.41808 104.015 0.424835 104.128 0.440055V1.86133C104.015 1.84307 103.9 1.83517 103.785 1.83776C103.322 1.81898 102.861 1.90594 102.437 2.09177C102.014 2.2776 101.641 2.55726 101.346 2.90876C100.747 3.62052 100.447 4.67469 100.447 6.07127V12.0999H98.931Z" fill="#131416"/>
<path d="M102.832 10.8066H103.089C103.176 10.8155 103.264 10.7966 103.339 10.7527C103.361 10.736 103.378 10.7144 103.389 10.6898C103.401 10.6652 103.406 10.6382 103.404 10.6113C103.405 10.5753 103.394 10.5401 103.374 10.5102C103.351 10.4799 103.32 10.4566 103.284 10.4429C103.215 10.4259 103.143 10.4191 103.072 10.4226H102.832V10.8066ZM102.619 11.5307V10.2475H103.072C103.187 10.2413 103.303 10.2527 103.415 10.2811C103.481 10.305 103.539 10.3485 103.579 10.4058C103.619 10.4612 103.64 10.5269 103.641 10.5944C103.642 10.6401 103.633 10.6855 103.615 10.7277C103.598 10.77 103.572 10.8083 103.538 10.8403C103.465 10.9108 103.367 10.9516 103.264 10.9548C103.306 10.9708 103.344 10.9948 103.377 11.0255C103.45 11.1029 103.514 11.1876 103.569 11.2781L103.73 11.5307H103.473L103.356 11.3286C103.302 11.2158 103.226 11.114 103.133 11.0289C103.084 10.9956 103.025 10.9801 102.965 10.9851H102.832V11.5307H102.619ZM103.154 9.87363C102.98 9.87531 102.808 9.9205 102.657 10.005C102.496 10.0882 102.363 10.2158 102.276 10.3721C102.186 10.5234 102.139 10.6954 102.139 10.8706C102.139 11.0442 102.185 11.2147 102.272 11.3657C102.36 11.521 102.491 11.6484 102.65 11.7328C102.803 11.821 102.977 11.8675 103.154 11.8675C103.331 11.8675 103.505 11.821 103.658 11.7328C103.817 11.6484 103.948 11.521 104.036 11.3657C104.12 11.2138 104.165 11.0437 104.166 10.8706C104.166 10.6959 104.12 10.5241 104.032 10.3721C103.944 10.2165 103.812 10.0891 103.651 10.005C103.506 9.92374 103.342 9.87865 103.175 9.87363H103.154ZM103.154 9.67828C103.363 9.67902 103.568 9.73114 103.751 9.82984C103.943 9.9315 104.101 10.0845 104.207 10.271C104.312 10.4544 104.367 10.6606 104.368 10.8706C104.369 11.0787 104.313 11.2833 104.207 11.4633C104.105 11.6512 103.948 11.8057 103.758 11.9079C103.573 12.0094 103.365 12.0627 103.154 12.0627C102.943 12.0627 102.735 12.0094 102.55 11.9079C102.364 11.8019 102.212 11.6467 102.111 11.46C102.005 11.2787 101.948 11.0731 101.948 10.8638C101.948 10.6546 102.005 10.449 102.111 10.2677C102.218 10.0811 102.376 9.92813 102.567 9.82647C102.754 9.72729 102.963 9.67629 103.175 9.67828H103.154Z" fill="#131416"/>
</g>
<defs>
<clipPath id="clip0_1_336">
<rect width="104" height="12" fill="white" transform="translate(0.382263 0.285156)"/>
</clipPath>
</defs>
</svg>
