<svg width="33" height="33" viewBox="0 0 33 33" fill="none" xmlns="http://www.w3.org/2000/svg">
<g clip-path="url(#clip0_1_487)">
<path fill-rule="evenodd" clip-rule="evenodd" d="M17.5252 0.285156H15.2394V10.4057L11.4482 1.02209L9.32892 1.87834L13.2184 11.505L5.87668 4.16332L4.26044 5.77958L11.2971 12.8163L2.17812 8.83206L1.263 10.9266L10.912 15.1423H0.382263V17.4281H10.912L1.263 21.6438L2.17812 23.7383L11.2971 19.7542L4.26044 26.7908L5.87668 28.407L13.2184 21.0654L9.32892 30.6921L11.4482 31.5482L15.2394 22.1647V32.2852H17.5252V22.1647L21.3164 31.5482L23.4356 30.6921L19.5463 21.0654L26.8879 28.407L28.5041 26.7908L21.4674 19.7542L30.5865 23.7383L31.5015 21.6438L21.8527 17.4281H32.3823V15.1423H21.8525L31.5015 10.9266L30.5865 8.83206L21.4674 12.8163L28.5041 5.77956L26.8879 4.16332L19.5463 11.505L23.4356 1.87834L21.3164 1.02209L17.5252 10.4057V0.285156Z" fill="white"/>
</g>
<defs>
<clipPath id="clip0_1_487">
<rect width="32" height="32" fill="white" transform="translate(0.382263 0.285156)"/>
</clipPath>
</defs>
</svg>
